<svg xmlns="http://www.w3.org/2000/svg" xmlns:xlink="http://www.w3.org/1999/xlink" width="1080" zoomAndPan="magnify" viewBox="0 0 810 809.999993" height="1080" preserveAspectRatio="xMidYMid meet" version="1.0"><defs><g/></defs><g fill="#ffa7e4" fill-opacity="1"><g transform="translate(95.21834, 503.797651)"><g><path d="M 140.019531 -216.542969 L 28.761719 -216.542969 C 17.910156 -216.542969 8.953125 -207.585938 8.953125 -196.460938 L 8.953125 -20.082031 C 8.953125 -8.953125 17.910156 0 28.761719 0 L 62.683594 0 C 73.808594 0 82.761719 -8.953125 82.761719 -20.082031 L 82.761719 -71.09375 C 82.761719 -72.453125 83.578125 -72.996094 84.664062 -73.265625 L 124.550781 -73.265625 C 131.605469 -73.265625 137.578125 -78.964844 137.578125 -86.019531 L 137.578125 -115.867188 C 137.578125 -123.195312 131.605469 -128.894531 124.550781 -128.894531 L 84.664062 -128.894531 C 83.578125 -128.894531 82.761719 -129.707031 82.761719 -130.792969 L 82.761719 -155.757812 C 82.761719 -156.570312 83.578125 -157.65625 84.664062 -157.65625 L 140.019531 -157.65625 C 147.886719 -157.65625 154.128906 -164.167969 154.128906 -171.769531 L 154.128906 -202.160156 C 154.128906 -210.300781 147.886719 -216.542969 140.019531 -216.542969 Z M 140.019531 -216.542969 "/></g></g></g><g fill="#ffa7e4" fill-opacity="1"><g transform="translate(258.28997, 503.797651)"><g><path d="M 134.59375 -73.265625 L 81.679688 -73.265625 L 81.679688 -195.105469 C 81.679688 -206.773438 71.367188 -217.082031 60.242188 -217.082031 L 28.761719 -217.082031 C 17.09375 -217.082031 8.953125 -206.773438 8.953125 -195.105469 L 8.953125 -17.910156 C 8.953125 -8.140625 15.195312 0 26.863281 0 L 134.59375 0 C 144.632812 0 152.773438 -8.140625 152.773438 -17.910156 L 152.773438 -54.269531 C 152.773438 -64.3125 144.632812 -73.265625 134.59375 -73.265625 Z M 134.59375 -73.265625 "/></g></g></g><g fill="#ffa7e4" fill-opacity="1"><g transform="translate(420.004925, 503.797651)"><g><path d="M 28.222656 0.269531 L 61.867188 0.269531 C 73.265625 0.269531 81.40625 -8.953125 81.40625 -19.265625 L 81.40625 -197.546875 C 81.40625 -208.941406 73.265625 -217.082031 61.867188 -217.082031 L 28.222656 -217.082031 C 17.636719 -217.082031 8.953125 -208.941406 8.953125 -197.546875 L 8.953125 -19.265625 C 8.953125 -8.953125 17.636719 0.269531 28.222656 0.269531 Z M 28.222656 0.269531 "/></g></g></g><g fill="#ffa7e4" fill-opacity="1"><g transform="translate(510.359075, 503.797651)"><g><path d="M 160.371094 -183.707031 C 154.402344 -203.246094 136.492188 -216.542969 116.140625 -216.542969 L 30.121094 -216.542969 C 18.453125 -216.542969 8.953125 -206.773438 8.953125 -195.105469 L 8.953125 -21.980469 C 8.953125 -10.039062 18.453125 -0.542969 30.121094 -0.542969 L 58.339844 -0.542969 C 70.007812 -0.542969 79.507812 -10.039062 79.507812 -21.980469 L 79.507812 -71.636719 L 117.226562 -71.636719 C 128.621094 -71.636719 139.476562 -76.523438 146.804688 -85.207031 C 155.757812 -96.058594 164.984375 -114.78125 164.984375 -145.988281 C 164.984375 -161.726562 163.085938 -174.480469 160.371094 -183.707031 Z M 104.199219 -146.53125 L 104.199219 -142.734375 C 104.199219 -133.507812 97.144531 -126.453125 88.191406 -126.453125 L 83.035156 -126.453125 C 80.863281 -126.453125 79.507812 -127.808594 79.507812 -129.707031 L 79.507812 -159.015625 C 79.507812 -160.914062 80.863281 -162.8125 83.035156 -162.8125 L 88.191406 -162.8125 C 97.144531 -162.8125 104.199219 -155.214844 104.199219 -146.53125 Z M 104.199219 -146.53125 "/></g></g></g><g fill="#ffa7e4" fill-opacity="1"><g transform="translate(679.942734, 503.797651)"><g><path d="M 40.972656 -18.996094 C 40.972656 -8.410156 32.292969 0 21.980469 0 C 11.398438 0 2.984375 -8.410156 2.984375 -18.996094 C 2.984375 -29.304688 11.398438 -37.988281 21.980469 -37.988281 C 32.292969 -37.988281 40.972656 -29.304688 40.972656 -18.996094 Z M 40.972656 -18.996094 "/></g></g></g><path stroke-linecap="butt" transform="matrix(1.415962, 0, 0, 1.415962, -97.004552, 280.376607)" fill="none" stroke-linejoin="miter" d="M 241.251036 0.0540393 L 162.649418 0.0540393 C 154.977401 0.0540393 148.659919 6.415661 148.659919 14.275271 L 148.659919 138.823469 C 148.659919 146.683079 154.977401 153.000562 162.649418 153.000562 L 186.603435 153.000562 C 194.465803 153.000562 200.780527 146.683079 200.780527 138.823469 L 200.780527 102.797268 C 200.780527 101.815161 201.390205 101.439975 202.13782 101.252381 L 230.304411 101.252381 C 235.30874 101.252381 239.521315 97.230159 239.521315 92.26997 L 239.521315 71.168475 C 239.521315 65.976553 235.30874 61.951572 230.304411 61.951572 L 202.13782 61.951572 C 201.390205 61.951572 200.780527 61.391551 200.780527 60.641177 L 200.780527 43.004643 C 200.780527 42.441863 201.390205 41.64735 202.13782 41.64735 L 241.251036 41.64735 C 246.771246 41.64735 251.218312 37.062347 251.218312 31.680073 L 251.218312 10.206151 C 251.218312 4.498347 246.771246 0.0540393 241.251036 0.0540393 Z M 352.582178 101.252381 L 315.198683 101.252381 L 315.198683 15.213238 C 315.198683 6.978441 307.899095 -0.321147 300.039485 -0.321147 L 277.815189 -0.321147 C 269.580392 -0.321147 263.82569 6.978441 263.82569 15.213238 L 263.82569 140.368356 C 263.82569 147.245859 268.225858 153.000562 276.504794 153.000562 L 352.582178 153.000562 C 359.647275 153.000562 365.401977 147.245859 365.401977 140.368356 L 365.401977 114.681859 C 365.401977 107.569864 359.647275 101.252381 352.582178 101.252381 Z M 391.651254 153.188155 L 415.417678 153.188155 C 423.464881 153.188155 429.219583 146.683079 429.219583 139.386249 L 429.219583 13.480758 C 429.219583 5.433555 423.464881 -0.321147 415.417678 -0.321147 L 391.651254 -0.321147 C 384.164072 -0.321147 378.034183 5.433555 378.034183 13.480758 L 378.034183 139.386249 C 378.034183 146.683079 384.164072 153.188155 391.651254 153.188155 Z M 548.802075 23.260441 C 544.592259 9.455777 531.910396 0.0540393 517.548469 0.0540393 L 456.817877 0.0540393 C 448.58308 0.0540393 441.846272 6.978441 441.846272 15.213238 L 441.846272 137.466176 C 441.846272 145.888566 448.58308 152.625375 456.817877 152.625375 L 476.749672 152.625375 C 484.984469 152.625375 491.674379 145.888566 491.674379 137.466176 L 491.674379 102.422081 L 518.296084 102.422081 C 526.390186 102.422081 534.018063 98.95988 539.209985 92.83275 C 545.527467 85.157974 552.029784 71.918849 552.029784 49.882146 C 552.029784 38.792068 550.719389 29.762758 548.802075 23.260441 Z M 509.126079 49.50696 L 509.126079 52.221546 C 509.126079 58.723863 504.118991 63.684052 497.804268 63.684052 L 494.154473 63.684052 C 492.656485 63.684052 491.674379 62.748844 491.674379 61.391551 L 491.674379 40.712141 C 491.674379 39.354848 492.656485 37.997555 494.154473 37.997555 L 497.804268 37.997555 C 504.118991 37.997555 509.126079 43.377071 509.126079 49.50696 Z M 584.210322 139.571084 C 584.210322 147.058266 578.080433 153.000562 570.830501 153.000562 C 563.343319 153.000562 557.401023 147.058266 557.401023 139.571084 C 557.401023 132.321152 563.343319 126.191263 570.830501 126.191263 C 578.080433 126.191263 584.210322 132.321152 584.210322 139.571084 Z M 584.210322 139.571084 " stroke="#ff66c4" stroke-width="3.114264" stroke-opacity="1" stroke-miterlimit="4"/><g fill="#5ce1e6" fill-opacity="1"><g transform="translate(72.147789, 237.828367)"><g><path d="M 101.488281 -216.8125 L 28.492188 -216.8125 C 17.09375 -216.8125 8.953125 -207.316406 8.953125 -197.273438 L 8.953125 -20.621094 C 8.953125 -10.855469 17.09375 -0.8125 28.492188 -0.8125 L 101.488281 -0.8125 C 144.089844 -0.8125 176.652344 -35.277344 176.652344 -76.25 L 176.652344 -141.648438 C 176.652344 -182.621094 144.089844 -216.8125 101.488281 -216.8125 Z M 110.441406 -102.300781 C 110.441406 -90.902344 102.03125 -83.035156 90.902344 -83.035156 L 77.878906 -83.035156 C 75.980469 -83.035156 74.078125 -84.390625 74.078125 -87.648438 L 74.078125 -129.980469 C 74.078125 -133.507812 75.980469 -135.136719 77.878906 -135.136719 L 90.902344 -135.136719 C 102.03125 -135.136719 110.441406 -126.992188 110.441406 -115.324219 Z M 110.441406 -102.300781 "/></g></g></g><g fill="#5ce1e6" fill-opacity="1"><g transform="translate(255.58283, 237.828367)"><g><path d="M 177.738281 -23.066406 L 160.914062 -89.003906 C 160.371094 -91.175781 159.828125 -92.804688 159.015625 -94.160156 C 170.953125 -108.269531 178.550781 -125.636719 178.550781 -149.246094 C 178.550781 -190.761719 154.671875 -216.8125 125.09375 -216.8125 L 27.136719 -216.542969 C 16.550781 -216.542969 8.140625 -207.859375 8.140625 -192.390625 L 8.140625 -19.539062 C 8.140625 -9.496094 16.550781 -0.8125 27.136719 -0.8125 L 61.867188 -0.8125 C 67.296875 -0.8125 72.722656 -2.984375 76.25 -7.328125 C 81.136719 -12.753906 80.863281 -15.738281 80.863281 -20.082031 L 80.863281 -65.398438 C 80.863281 -65.9375 81.136719 -67.023438 82.21875 -67.023438 C 83.304688 -67.023438 83.847656 -66.210938 83.847656 -65.667969 L 86.019531 -54.542969 L 93.074219 -21.4375 C 95.789062 -9.226562 107.726562 -0.8125 116.953125 -0.8125 L 160.914062 -0.8125 C 171.496094 -0.8125 180.449219 -10.3125 177.738281 -23.066406 Z M 105.558594 -142.191406 L 105.558594 -138.390625 C 105.558594 -129.707031 98.230469 -122.382812 89.546875 -122.382812 L 84.390625 -122.382812 C 82.21875 -122.382812 80.863281 -124.007812 80.863281 -125.910156 L 80.863281 -154.945312 C 80.863281 -156.84375 82.21875 -158.472656 84.390625 -158.472656 L 89.546875 -158.472656 C 98.230469 -158.472656 105.558594 -151.144531 105.558594 -142.191406 Z M 105.558594 -142.191406 "/></g></g></g><g fill="#5ce1e6" fill-opacity="1"><g transform="translate(443.088189, 237.828367)"><g><path d="M 28.222656 0.269531 L 61.867188 0.269531 C 73.265625 0.269531 81.40625 -8.953125 81.40625 -19.265625 L 81.40625 -197.546875 C 81.40625 -208.941406 73.265625 -217.082031 61.867188 -217.082031 L 28.222656 -217.082031 C 17.636719 -217.082031 8.953125 -208.941406 8.953125 -197.546875 L 8.953125 -19.265625 C 8.953125 -8.953125 17.636719 0.269531 28.222656 0.269531 Z M 28.222656 0.269531 "/></g></g></g><g fill="#5ce1e6" fill-opacity="1"><g transform="translate(533.448934, 237.828367)"><g><path d="M 160.371094 -183.707031 C 154.402344 -203.246094 136.492188 -216.542969 116.140625 -216.542969 L 30.121094 -216.542969 C 18.453125 -216.542969 8.953125 -206.773438 8.953125 -195.105469 L 8.953125 -21.980469 C 8.953125 -10.039062 18.453125 -0.542969 30.121094 -0.542969 L 58.339844 -0.542969 C 70.007812 -0.542969 79.507812 -10.039062 79.507812 -21.980469 L 79.507812 -71.636719 L 117.226562 -71.636719 C 128.621094 -71.636719 139.476562 -76.523438 146.804688 -85.207031 C 155.757812 -96.058594 164.984375 -114.78125 164.984375 -145.988281 C 164.984375 -161.726562 163.085938 -174.480469 160.371094 -183.707031 Z M 104.199219 -146.53125 L 104.199219 -142.734375 C 104.199219 -133.507812 97.144531 -126.453125 88.191406 -126.453125 L 83.035156 -126.453125 C 80.863281 -126.453125 79.507812 -127.808594 79.507812 -129.707031 L 79.507812 -159.015625 C 79.507812 -160.914062 80.863281 -162.8125 83.035156 -162.8125 L 88.191406 -162.8125 C 97.144531 -162.8125 104.199219 -155.214844 104.199219 -146.53125 Z M 104.199219 -146.53125 "/></g></g></g><g fill="#5ce1e6" fill-opacity="1"><g transform="translate(703.04492, 237.828367)"><g><path d="M 40.972656 -18.996094 C 40.972656 -8.410156 32.292969 0 21.980469 0 C 11.398438 0 2.984375 -8.410156 2.984375 -18.996094 C 2.984375 -29.304688 11.398438 -37.988281 21.980469 -37.988281 C 32.292969 -37.988281 40.972656 -29.304688 40.972656 -18.996094 Z M 40.972656 -18.996094 "/></g></g></g><path stroke-linecap="butt" transform="matrix(1.194239, 0, 0, 1.194239, -97.004552, 14.892211)" fill="none" stroke-linejoin="miter" d="M 234.439875 -0.563924 L 173.306533 -0.563924 C 163.765283 -0.563924 156.942161 7.423642 156.942161 15.800447 L 156.942161 163.74706 C 156.942161 171.901443 163.765283 180.333854 173.306533 180.333854 L 234.439875 180.333854 C 270.109168 180.333854 297.346051 151.487682 297.346051 117.14965 L 297.346051 62.397857 C 297.346051 28.059825 270.109168 -0.563924 234.439875 -0.563924 Z M 241.926992 95.349023 C 241.926992 104.890273 234.881448 111.490973 225.56262 111.490973 L 214.690109 111.490973 C 213.080821 111.490973 211.471532 110.326528 211.471532 107.6084 L 211.471532 72.161529 C 211.471532 69.220979 213.080821 67.834113 214.690109 67.834113 L 225.56262 67.834113 C 234.881448 67.834113 241.926992 74.657235 241.926992 84.420906 Z M 451.890092 161.696198 L 437.799004 106.499561 C 437.35416 104.667851 436.912587 103.280984 436.189716 102.172145 C 446.175809 90.357611 452.554087 75.821679 452.554087 56.016308 C 452.554087 21.292308 432.585171 -0.563924 407.788388 -0.563924 L 325.796442 -0.344773 C 316.922458 -0.344773 309.876914 6.923193 309.876914 19.905442 L 309.876914 164.636748 C 309.876914 173.065888 316.922458 180.333854 325.796442 180.333854 L 354.865035 180.333854 C 359.414873 180.333854 363.964712 178.502143 366.901991 174.841993 C 371.006985 170.292154 370.787834 167.796449 370.787834 164.191904 L 370.787834 126.246056 C 370.787834 125.804483 371.006985 124.859189 371.896673 124.859189 C 372.78309 124.859189 373.28354 125.582061 373.28354 126.026905 L 375.056374 135.345732 L 380.993079 163.027459 C 383.266362 173.28831 393.252456 180.333854 400.965266 180.333854 L 437.799004 180.333854 C 446.672988 180.333854 454.163376 172.346287 451.890092 161.696198 Z M 391.424016 61.953013 L 391.424016 65.115985 C 391.424016 72.383951 385.320495 78.539807 378.052529 78.539807 L 373.725113 78.539807 C 371.896673 78.539807 370.787834 77.15294 370.787834 75.543652 L 370.787834 51.247319 C 370.787834 49.693636 371.896673 48.306769 373.725113 48.306769 L 378.052529 48.306769 C 385.320495 48.306769 391.424016 54.465896 391.424016 61.953013 Z M 483.693168 181.220271 L 511.875344 181.220271 C 521.416594 181.220271 528.239716 173.510732 528.239716 164.855899 L 528.239716 15.578025 C 528.239716 6.036776 521.416594 -0.786346 511.875344 -0.786346 L 483.693168 -0.786346 C 474.815913 -0.786346 467.551218 6.036776 467.551218 15.578025 L 467.551218 164.855899 C 467.551218 173.510732 474.815913 181.220271 483.693168 181.220271 Z M 670.027201 27.170137 C 665.03579 10.805765 649.999408 -0.344773 632.971041 -0.344773 L 560.965189 -0.344773 C 551.201517 -0.344773 543.21395 7.865215 543.21395 17.628887 L 543.21395 162.582615 C 543.21395 172.568709 551.201517 180.556276 560.965189 180.556276 L 584.597527 180.556276 C 594.361198 180.556276 602.29316 172.568709 602.29316 162.582615 L 602.29316 121.032222 L 633.857459 121.032222 C 643.454314 121.032222 652.498385 116.927228 658.654241 109.662533 C 666.144629 100.562856 673.854168 84.86575 673.854168 58.737707 C 673.854168 45.588641 672.300485 34.882947 670.027201 27.170137 Z M 622.984948 58.292863 L 622.984948 61.508169 C 622.984948 69.220979 617.048243 75.102079 609.561126 75.102079 L 605.233709 75.102079 C 603.457604 75.102079 602.29316 73.989969 602.29316 72.383951 L 602.29316 47.861925 C 602.29316 46.255907 603.457604 44.646619 605.233709 44.646619 L 609.561126 44.646619 C 617.048243 44.646619 622.984948 51.024897 622.984948 58.292863 Z M 712.019167 165.078321 C 712.019167 173.955576 704.751201 181.00112 696.155245 181.00112 C 687.27799 181.00112 680.232446 173.955576 680.232446 165.078321 C 680.232446 156.479094 687.27799 149.214399 696.155245 149.214399 C 704.751201 149.214399 712.019167 156.479094 712.019167 165.078321 Z M 712.019167 165.078321 " stroke="#8c52ff" stroke-width="3.692455" stroke-opacity="1" stroke-miterlimit="4"/><g fill="#5ce1e6" fill-opacity="1"><g transform="translate(59.601404, 789.029545)"><g><path d="M 94.972656 -226.851562 C 91.71875 -226.851562 4.613281 -231.464844 4.613281 -156.027344 C 4.613281 -108.8125 38.804688 -81.679688 84.664062 -81.679688 L 100.945312 -81.679688 C 109.898438 -81.679688 117.226562 -76.25 117.226562 -67.296875 C 117.226562 -58.613281 109.898438 -52.371094 102.300781 -52.371094 C 97.960938 -52.371094 90.632812 -53.726562 87.917969 -64.582031 C 87.105469 -66.753906 86.019531 -68.109375 81.949219 -67.296875 L 9.226562 -58.613281 C 5.15625 -57.796875 4.339844 -55.085938 6.511719 -51.015625 C 17.636719 -20.082031 37.445312 9.769531 105.285156 9.769531 C 139.476562 9.769531 182.621094 -8.953125 182.621094 -68.652344 C 182.621094 -142.191406 117.769531 -136.761719 94.972656 -136.761719 C 87.917969 -136.761719 74.351562 -138.390625 74.351562 -151.417969 C 74.351562 -162 83.304688 -166.613281 89.277344 -166.613281 C 93.617188 -166.613281 100.945312 -163.355469 103.65625 -156.027344 C 104.742188 -152.773438 107.183594 -151.417969 109.898438 -151.417969 L 176.378906 -160.640625 C 179.367188 -160.914062 181.535156 -163.898438 180.722656 -167.96875 C 177.738281 -182.621094 164.710938 -226.851562 94.972656 -226.851562 Z M 94.972656 -226.851562 "/></g></g></g><g fill="#5ce1e6" fill-opacity="1"><g transform="translate(246.835392, 789.029545)"><g><path d="M 181.808594 -15.738281 L 152.5 -104.199219 L 182.894531 -198.632812 C 183.4375 -200.261719 183.707031 -201.34375 183.707031 -202.972656 C 183.707031 -209.757812 178.007812 -215.183594 171.226562 -215.183594 L 123.464844 -215.183594 C 117.496094 -215.183594 113.425781 -211.386719 110.984375 -202.972656 C 110.984375 -202.972656 99.585938 -166.613281 94.972656 -154.402344 C 94.160156 -152.773438 93.074219 -149.246094 92.261719 -147.347656 C 91.988281 -146.261719 91.445312 -144.902344 90.902344 -143.546875 C 90.359375 -141.917969 88.734375 -140.832031 86.5625 -140.832031 C 85.207031 -140.832031 81.679688 -141.917969 81.679688 -145.175781 L 81.679688 -203.515625 C 81.679688 -210.300781 75.980469 -216 69.195312 -216 L 21.4375 -216 C 14.652344 -216 8.953125 -210.300781 8.953125 -203.515625 L 8.953125 -11.941406 C 8.953125 -5.15625 14.652344 0.269531 21.4375 0.269531 L 69.195312 0.269531 C 75.980469 0.269531 81.679688 -5.15625 81.679688 -11.941406 L 81.679688 -65.9375 C 81.679688 -68.109375 83.578125 -69.738281 85.207031 -70.007812 C 86.832031 -70.550781 89.277344 -69.738281 90.089844 -67.023438 C 93.074219 -58.882812 96.332031 -49.65625 110.441406 -7.054688 C 110.710938 -6.242188 113.699219 0.269531 121.296875 0.269531 L 171.769531 0.269531 C 175.296875 0 178.28125 -1.898438 180.449219 -4.882812 C 182.351562 -7.871094 182.894531 -11.941406 181.808594 -15.738281 Z M 181.808594 -15.738281 "/></g></g></g><g fill="#5ce1e6" fill-opacity="1"><g transform="translate(427.828235, 789.029545)"><g><path d="M 28.222656 0.269531 L 61.867188 0.269531 C 73.265625 0.269531 81.40625 -8.953125 81.40625 -19.265625 L 81.40625 -197.546875 C 81.40625 -208.941406 73.265625 -217.082031 61.867188 -217.082031 L 28.222656 -217.082031 C 17.636719 -217.082031 8.953125 -208.941406 8.953125 -197.546875 L 8.953125 -19.265625 C 8.953125 -8.953125 17.636719 0.269531 28.222656 0.269531 Z M 28.222656 0.269531 "/></g></g></g><g fill="#5ce1e6" fill-opacity="1"><g transform="translate(518.18898, 789.029545)"><g><path d="M 160.371094 -183.707031 C 154.402344 -203.246094 136.492188 -216.542969 116.140625 -216.542969 L 30.121094 -216.542969 C 18.453125 -216.542969 8.953125 -206.773438 8.953125 -195.105469 L 8.953125 -21.980469 C 8.953125 -10.039062 18.453125 -0.542969 30.121094 -0.542969 L 58.339844 -0.542969 C 70.007812 -0.542969 79.507812 -10.039062 79.507812 -21.980469 L 79.507812 -71.636719 L 117.226562 -71.636719 C 128.621094 -71.636719 139.476562 -76.523438 146.804688 -85.207031 C 155.757812 -96.058594 164.984375 -114.78125 164.984375 -145.988281 C 164.984375 -161.726562 163.085938 -174.480469 160.371094 -183.707031 Z M 104.199219 -146.53125 L 104.199219 -142.734375 C 104.199219 -133.507812 97.144531 -126.453125 88.191406 -126.453125 L 83.035156 -126.453125 C 80.863281 -126.453125 79.507812 -127.808594 79.507812 -129.707031 L 79.507812 -159.015625 C 79.507812 -160.914062 80.863281 -162.8125 83.035156 -162.8125 L 88.191406 -162.8125 C 97.144531 -162.8125 104.199219 -155.214844 104.199219 -146.53125 Z M 104.199219 -146.53125 "/></g></g></g><g fill="#5ce1e6" fill-opacity="1"><g transform="translate(687.784966, 789.029545)"><g><path d="M 40.972656 -18.996094 C 40.972656 -8.410156 32.292969 0 21.980469 0 C 11.398438 0 2.984375 -8.410156 2.984375 -18.996094 C 2.984375 -29.304688 11.398438 -37.988281 21.980469 -37.988281 C 32.292969 -37.988281 40.972656 -29.304688 40.972656 -18.996094 Z M 40.972656 -18.996094 "/></g></g></g><path stroke-linecap="butt" transform="matrix(1.194239, 0, 0, 1.194239, -110.894456, 566.093368)" fill="none" stroke-linejoin="miter" d="M 230.128209 -8.942353 C 227.354475 -8.942353 154.462206 -12.824925 154.462206 50.359279 C 154.462206 89.911144 183.085955 112.60146 221.473376 112.60146 L 235.11962 112.60146 C 242.610008 112.60146 248.710259 117.151298 248.710259 124.638415 C 248.710259 131.906381 242.610008 137.120215 236.228459 137.120215 C 232.623914 137.120215 226.464787 136.011375 224.191504 126.911699 C 223.527509 125.083259 222.582215 123.97442 219.200092 124.638415 L 158.289172 131.906381 C 154.903779 132.625982 154.239784 134.902536 156.015889 138.284659 C 165.334716 164.190281 181.92151 189.15388 238.724165 189.15388 C 267.351185 189.15388 303.517657 173.512379 303.517657 123.529576 C 303.517657 61.954661 249.210708 66.501228 230.128209 66.501228 C 224.191504 66.501228 212.818543 65.114362 212.818543 54.186245 C 212.818543 45.367867 220.308931 41.485295 225.355948 41.485295 C 228.963764 41.485295 235.11962 44.203423 237.392904 50.359279 C 238.282592 53.077406 240.333453 54.186245 242.610008 54.186245 L 298.248218 46.476706 C 300.743924 46.254284 302.575634 43.758579 301.911639 40.373185 C 299.412663 28.058202 288.484546 -8.942353 230.128209 -8.942353 Z M 459.579402 167.798097 L 435.060647 93.741382 L 460.521424 14.689985 C 460.966268 13.303119 461.18869 12.416702 461.18869 11.029835 C 461.18869 5.371157 456.41643 0.821319 450.757753 0.821319 L 410.761043 0.821319 C 405.769631 0.821319 402.328632 3.984291 400.27777 11.029835 C 400.27777 11.029835 390.736521 41.485295 386.909554 51.69054 C 386.186682 53.077406 385.300265 56.017956 384.632999 57.627245 C 384.410577 58.513662 383.913399 59.678106 383.468555 60.790216 C 383.023711 62.177083 381.636844 63.0635 379.86401 63.0635 C 378.699565 63.0635 375.759015 62.177083 375.759015 59.455684 L 375.759015 10.584991 C 375.759015 4.926313 370.986755 0.157324 365.272472 0.157324 L 325.331368 0.157324 C 319.620356 0.157324 314.848096 4.926313 314.848096 10.584991 L 314.848096 171.013403 C 314.848096 176.67208 319.620356 181.221919 325.331368 181.221919 L 365.272472 181.221919 C 370.986755 181.221919 375.759015 176.67208 375.759015 171.013403 L 375.759015 125.80286 C 375.759015 123.97442 377.368304 122.587553 378.699565 122.365131 C 380.086432 121.920287 382.137293 122.587553 382.80456 124.860837 C 385.300265 131.683959 388.018393 139.393498 399.832926 175.118397 C 400.055348 175.785663 402.551054 181.221919 408.932603 181.221919 L 451.202597 181.221919 C 454.143146 180.999497 456.638852 179.390208 458.470563 176.894502 C 460.07658 174.398797 460.521424 171.013403 459.579402 167.798097 Z M 482.544474 181.221919 L 510.72665 181.221919 C 520.2679 181.221919 527.091022 173.512379 527.091022 164.857547 L 527.091022 15.576402 C 527.091022 6.035153 520.2679 -0.787969 510.72665 -0.787969 L 482.544474 -0.787969 C 473.67049 -0.787969 466.402524 6.035153 466.402524 15.576402 L 466.402524 164.857547 C 466.402524 173.512379 473.67049 181.221919 482.544474 181.221919 Z M 668.878507 27.171785 C 663.887096 10.807413 648.853985 -0.343125 631.822347 -0.343125 L 559.819765 -0.343125 C 550.056093 -0.343125 542.068527 7.866863 542.068527 17.630535 L 542.068527 162.584263 C 542.068527 172.567086 550.056093 180.554653 559.819765 180.554653 L 583.448832 180.554653 C 593.212504 180.554653 601.147736 172.567086 601.147736 162.584263 L 601.147736 121.03387 L 632.712035 121.03387 C 642.30889 121.03387 651.349691 116.928876 657.508818 109.66091 C 664.995935 100.564504 672.708745 84.864127 672.708745 58.736084 C 672.708745 45.590289 671.155062 34.881324 668.878507 27.171785 Z M 621.839524 58.29124 L 621.839524 61.509817 C 621.839524 69.219356 615.902819 75.100456 608.412431 75.100456 L 604.085015 75.100456 C 602.312181 75.100456 601.147736 73.991616 601.147736 72.382328 L 601.147736 47.863573 C 601.147736 46.254284 602.312181 44.644996 604.085015 44.644996 L 608.412431 44.644996 C 615.902819 44.644996 621.839524 51.026545 621.839524 58.29124 Z M 710.873744 165.079969 C 710.873744 173.953953 703.605778 180.999497 695.006551 180.999497 C 686.132567 180.999497 679.087023 173.953953 679.087023 165.079969 C 679.087023 156.480742 686.132567 149.212776 695.006551 149.212776 C 703.605778 149.212776 710.873744 156.480742 710.873744 165.079969 Z M 710.873744 165.079969 " stroke="#cb6ce6" stroke-width="3.692455" stroke-opacity="1" stroke-miterlimit="4"/></svg>